<svg id="Layer_1" data-name="Layer 1" xmlns="http://www.w3.org/2000/svg" viewBox="0 0 1024 394"><defs><style>.cls-1{fill:#6ae173;}.cls-2,.cls-3{fill:#3e4b3e;}.cls-3{font-size:140.94px;font-family:Poppins-Medium, Poppins;font-weight:500;}.cls-4{fill:#464646;font-family:Poppins-Thin, Poppins;font-weight:200;}</style></defs><title>logo-full</title><path class="cls-1" d="M339.85,213.9c-63.24,2.7-114.73-25.72-169.15-46.61-30.44-11.69-61.19-22.51-95.21-24-6.4-.29-12.83-.05-19.78-.05v27.67C94,166.25,129.87,174.55,167.5,187c-37.3,12.52-72.81,20.74-111.64,16.36v26.52c10.86,0,22,.93,32.78-.18,32.13-3.28,61.68-13.75,89.86-26.44,13.9-6.26,25.55-6.18,39.5,2.43-51.75,23-99.55,52.1-161.88,52.73v27.22c27.1-.29,51.31-7.75,73.8-18.28,33.23-15.57,65.82-32.19,97.91-49.39,11.24-6,20.37-5.42,32,0C247,225.24,235.12,232,223.15,238.6c-33.57,18.67-66.4,38.43-101.08,55.49-17.8,8.75-38.79,13.07-58.67,18.54-5.82,1.6-8.74,2.94-8.37,8.36.44,6.35.1,12.75.1,22,15.74-5,30.69-7.59,42.84-14,32.84-17.27,64.71-35.87,96.53-54.48,26.5-15.49,52.14-32,78.75-47.37,5-2.87,12.71-3.11,19.2-3.19,12.63-.14,25.28.69,37.93,1.11C339.5,225.39,343,222.05,339.85,213.9Z"/><path class="cls-2" d="M340.09,192.69c-51.16-3.94-92.31-26.53-133.87-48.23-33.85-17.68-66.75-36.93-104.73-48-14.17-4.14-29.17-6.29-45.33-9.67v28.68c61.31.91,109.66,29.64,162.39,53.3l-14.17,6.51c11.66,4.74,20.32,11.35,33.94,5.23,4.6-2.06,13.65,2.92,23.06,5.29L250,192.58c9.77,3.53,17.09,7.95,28.48,3.54,6.15-2.38,15.56,1.26,26,2.47l-9.39,5.63C319.35,211.72,341.44,206.34,340.09,192.69Z"/><path class="cls-2" d="M55.2,34.3c0,7-.39,14,.24,20.94.18,2,3,5.2,5.08,5.49,42.48,6,77.21,25.49,111.8,45.18,28.81,16.39,57.32,33.17,86.61,50.15l-7.72,4.15c.53.69.86,1.65,1.6,2,8.38,4.33,16.19,7.52,27.35,5,6.33-1.41,14.65,3.53,23.75,6.09l-10.27,4.52c13.66,5.37,26.94,7.52,40.78,4.11,2.48-.61,6.17-2.91,6.14-4.39-.05-2.34-2.27-6.26-4.42-6.72-49.2-10.7-87.41-37.28-127.16-61.79-32.44-20-64.88-40.09-98.64-58.41-15.73-8.54-34.59-13-52-19.29Z"/><path class="cls-2" d="M295.16,154.16l43.26,8.05c4.44-9.15,2.21-13-7.35-13-11.75,0-23.49,0-35.24,0Z"/><text id="IJAH_Analytics" data-name="IJAH Analytics" class="cls-3" transform="translate(383.12 207.65)">IJAH<tspan class="cls-4"><tspan x="0" y="125">Analytics</tspan></tspan></text></svg>
