<svg xmlns="http://www.w3.org/2000/svg" viewBox="0 0 286 311.6"><defs><style>.cls-1{fill:#6ae173;}.cls-2{fill:#3e4b3e;}</style></defs><title>only-logo</title><g id="Layer_2" data-name="Layer 2"><g id="Layer_1-2" data-name="Layer 1"><path class="cls-1" d="M284.85,182.5c-63.24,2.7-114.73-25.72-169.15-46.62-30.44-11.69-61.19-22.51-95.21-24-6.4-.29-12.83,0-19.78,0v27.67c38.33-4.62,74.16,3.68,111.79,16.17C75.2,168.15,39.69,176.37.86,172v26.51c10.86,0,22,.93,32.78-.17,32.13-3.28,61.68-13.75,89.86-26.44,13.9-6.26,25.55-6.18,39.5,2.43-51.75,23-99.55,52.1-161.88,52.73v27.21c27.1-.29,51.31-7.74,73.8-18.28,33.23-15.57,65.82-32.19,97.91-49.38,11.24-6,20.37-5.42,32,0-12.85,7.2-24.76,13.91-36.73,20.56-33.57,18.66-66.4,38.42-101.08,55.48-17.8,8.76-38.79,13.07-58.67,18.55-5.82,1.6-8.74,2.94-8.37,8.35.44,6.36.1,12.76.1,22,15.74-5,30.69-7.59,42.84-14,32.84-17.26,64.71-35.87,96.53-54.47,26.5-15.49,52.14-32,78.75-47.38,5-2.87,12.71-3.11,19.2-3.18,12.63-.15,25.28.69,37.93,1.11C284.5,194,288,190.65,284.85,182.5Z"/><path class="cls-2" d="M285.09,161.29c-51.16-3.94-92.31-26.53-133.87-48.24C117.37,95.38,84.47,76.12,46.49,65c-14.17-4.15-29.17-6.29-45.33-9.67V84c61.31.9,109.66,29.64,162.39,53.29l-14.17,6.52c11.66,4.74,20.32,11.35,33.94,5.23,4.6-2.07,13.65,2.92,23.06,5.28L195,161.17c9.77,3.53,17.09,8,28.48,3.55,6.15-2.38,15.56,1.25,26,2.47l-9.39,5.63C264.35,180.31,286.44,174.94,285.09,161.29Z"/><path class="cls-2" d="M.2,2.89c0,7-.39,14,.24,21,.18,2,3,5.2,5.08,5.49,42.48,6,77.21,25.48,111.8,45.17,28.81,16.4,57.32,33.17,86.61,50.16l-7.72,4.14c.53.7.86,1.65,1.6,2,8.38,4.32,16.19,7.52,27.35,5,6.33-1.41,14.65,3.53,23.75,6.08l-10.27,4.53c13.66,5.37,26.94,7.52,40.78,4.11,2.48-.61,6.17-2.92,6.14-4.39-.05-2.34-2.27-6.26-4.42-6.73-49.2-10.7-87.41-37.27-127.16-61.78-32.44-20-64.88-40.09-98.64-58.41C39.61,10.75,20.75,6.3,3.3,0Z"/><path class="cls-2" d="M240.16,122.75l43.26,8.05c4.44-9.14,2.21-13-7.35-13-11.75,0-23.49,0-35.24,0Z"/><text/></g></g></svg>